<?xml version="1.0" encoding="UTF-8" standalone="no"?>
<!DOCTYPE svg PUBLIC "-//W3C//DTD SVG 1.1//EN"
 "http://www.w3.org/Graphics/SVG/1.1/DTD/svg11.dtd">
<!-- Generated by graphviz version 2.42.3 (20191010.1750)
 -->
<!-- Title: snakemake_dag Pages: 1 -->
<svg width="435pt" height="260pt"
 viewBox="0.00 0.00 435.00 260.00" xmlns="http://www.w3.org/2000/svg" xmlns:xlink="http://www.w3.org/1999/xlink">
<g id="graph0" class="graph" transform="scale(1 1) rotate(0) translate(4 256)">
<title>snakemake_dag</title>
<polygon fill="white" stroke="transparent" points="-4,4 -4,-256 431,-256 431,4 -4,4"/>
<!-- 0 -->
<g id="node1" class="node">
<title>0</title>
<path fill="none" stroke="#56d88a" stroke-width="2" stroke-dasharray="5,2" d="M219,-36C219,-36 165,-36 165,-36 159,-36 153,-30 153,-24 153,-24 153,-12 153,-12 153,-6 159,0 165,0 165,0 219,0 219,0 225,0 231,-6 231,-12 231,-12 231,-24 231,-24 231,-30 225,-36 219,-36"/>
<text text-anchor="middle" x="192" y="-15.5" font-family="sans" font-size="10.00">bcftools_call</text>
</g>
<!-- 1 -->
<g id="node2" class="node">
<title>1</title>
<path fill="none" stroke="#88d856" stroke-width="2" stroke-dasharray="5,2" d="M74,-180C74,-180 12,-180 12,-180 6,-180 0,-174 0,-168 0,-168 0,-156 0,-156 0,-150 6,-144 12,-144 12,-144 74,-144 74,-144 80,-144 86,-150 86,-156 86,-156 86,-168 86,-168 86,-174 80,-180 74,-180"/>
<text text-anchor="middle" x="43" y="-159.5" font-family="sans" font-size="10.00">samtools_sort</text>
</g>
<!-- 1&#45;&gt;0 -->
<g id="edge1" class="edge">
<title>1&#45;&gt;0</title>
<path fill="none" stroke="grey" stroke-width="2" d="M32.05,-143.92C21.24,-124.67 8.4,-93.28 24,-72 50.97,-35.21 103.55,-23.3 142.74,-19.76"/>
<polygon fill="grey" stroke="grey" stroke-width="2" points="143.19,-23.24 152.9,-19.01 142.66,-16.26 143.19,-23.24"/>
</g>
<!-- 7 -->
<g id="node8" class="node">
<title>7</title>
<path fill="none" stroke="#d85656" stroke-width="2" stroke-dasharray="5,2" d="M115,-108C115,-108 45,-108 45,-108 39,-108 33,-102 33,-96 33,-96 33,-84 33,-84 33,-78 39,-72 45,-72 45,-72 115,-72 115,-72 121,-72 127,-78 127,-84 127,-84 127,-96 127,-96 127,-102 121,-108 115,-108"/>
<text text-anchor="middle" x="80" y="-87.5" font-family="sans" font-size="10.00">samtools_index</text>
</g>
<!-- 1&#45;&gt;7 -->
<g id="edge10" class="edge">
<title>1&#45;&gt;7</title>
<path fill="none" stroke="grey" stroke-width="2" d="M52.15,-143.7C56.4,-135.64 61.56,-125.89 66.27,-116.98"/>
<polygon fill="grey" stroke="grey" stroke-width="2" points="69.38,-118.58 70.96,-108.1 63.19,-115.31 69.38,-118.58"/>
</g>
<!-- 2 -->
<g id="node3" class="node">
<title>2</title>
<path fill="none" stroke="#d8bc56" stroke-width="2" stroke-dasharray="5,2" d="M73.5,-252C73.5,-252 12.5,-252 12.5,-252 6.5,-252 0.5,-246 0.5,-240 0.5,-240 0.5,-228 0.5,-228 0.5,-222 6.5,-216 12.5,-216 12.5,-216 73.5,-216 73.5,-216 79.5,-216 85.5,-222 85.5,-228 85.5,-228 85.5,-240 85.5,-240 85.5,-246 79.5,-252 73.5,-252"/>
<text text-anchor="middle" x="43" y="-237" font-family="sans" font-size="10.00">bwa_mapping</text>
<text text-anchor="middle" x="43" y="-226" font-family="sans" font-size="10.00">sample: A</text>
</g>
<!-- 2&#45;&gt;1 -->
<g id="edge7" class="edge">
<title>2&#45;&gt;1</title>
<path fill="none" stroke="grey" stroke-width="2" d="M43,-215.7C43,-207.98 43,-198.71 43,-190.11"/>
<polygon fill="grey" stroke="grey" stroke-width="2" points="46.5,-190.1 43,-180.1 39.5,-190.1 46.5,-190.1"/>
</g>
<!-- 3 -->
<g id="node4" class="node">
<title>3</title>
<path fill="none" stroke="#88d856" stroke-width="2" stroke-dasharray="5,2" d="M235,-180C235,-180 173,-180 173,-180 167,-180 161,-174 161,-168 161,-168 161,-156 161,-156 161,-150 167,-144 173,-144 173,-144 235,-144 235,-144 241,-144 247,-150 247,-156 247,-156 247,-168 247,-168 247,-174 241,-180 235,-180"/>
<text text-anchor="middle" x="204" y="-159.5" font-family="sans" font-size="10.00">samtools_sort</text>
</g>
<!-- 3&#45;&gt;0 -->
<g id="edge2" class="edge">
<title>3&#45;&gt;0</title>
<path fill="none" stroke="grey" stroke-width="2" d="M191.27,-143.85C184.71,-133.92 177.39,-120.88 174,-108 168.56,-87.36 173.91,-63.65 180.16,-45.89"/>
<polygon fill="grey" stroke="grey" stroke-width="2" points="183.57,-46.79 183.87,-36.2 177.03,-44.29 183.57,-46.79"/>
</g>
<!-- 8 -->
<g id="node9" class="node">
<title>8</title>
<path fill="none" stroke="#d85656" stroke-width="2" stroke-dasharray="5,2" d="M265,-108C265,-108 195,-108 195,-108 189,-108 183,-102 183,-96 183,-96 183,-84 183,-84 183,-78 189,-72 195,-72 195,-72 265,-72 265,-72 271,-72 277,-78 277,-84 277,-84 277,-96 277,-96 277,-102 271,-108 265,-108"/>
<text text-anchor="middle" x="230" y="-87.5" font-family="sans" font-size="10.00">samtools_index</text>
</g>
<!-- 3&#45;&gt;8 -->
<g id="edge11" class="edge">
<title>3&#45;&gt;8</title>
<path fill="none" stroke="grey" stroke-width="2" d="M210.43,-143.7C213.36,-135.81 216.89,-126.3 220.14,-117.55"/>
<polygon fill="grey" stroke="grey" stroke-width="2" points="223.45,-118.7 223.65,-108.1 216.88,-116.26 223.45,-118.7"/>
</g>
<!-- 4 -->
<g id="node5" class="node">
<title>4</title>
<path fill="none" stroke="#d8bc56" stroke-width="2" stroke-dasharray="5,2" d="M234.5,-252C234.5,-252 173.5,-252 173.5,-252 167.5,-252 161.5,-246 161.5,-240 161.5,-240 161.5,-228 161.5,-228 161.5,-222 167.5,-216 173.5,-216 173.5,-216 234.5,-216 234.5,-216 240.5,-216 246.5,-222 246.5,-228 246.5,-228 246.5,-240 246.5,-240 246.5,-246 240.5,-252 234.5,-252"/>
<text text-anchor="middle" x="204" y="-237" font-family="sans" font-size="10.00">bwa_mapping</text>
<text text-anchor="middle" x="204" y="-226" font-family="sans" font-size="10.00">sample: B</text>
</g>
<!-- 4&#45;&gt;3 -->
<g id="edge8" class="edge">
<title>4&#45;&gt;3</title>
<path fill="none" stroke="grey" stroke-width="2" d="M204,-215.7C204,-207.98 204,-198.71 204,-190.11"/>
<polygon fill="grey" stroke="grey" stroke-width="2" points="207.5,-190.1 204,-180.1 200.5,-190.1 207.5,-190.1"/>
</g>
<!-- 5 -->
<g id="node6" class="node">
<title>5</title>
<path fill="none" stroke="#88d856" stroke-width="2" stroke-dasharray="5,2" d="M362,-180C362,-180 300,-180 300,-180 294,-180 288,-174 288,-168 288,-168 288,-156 288,-156 288,-150 294,-144 300,-144 300,-144 362,-144 362,-144 368,-144 374,-150 374,-156 374,-156 374,-168 374,-168 374,-174 368,-180 362,-180"/>
<text text-anchor="middle" x="331" y="-159.5" font-family="sans" font-size="10.00">samtools_sort</text>
</g>
<!-- 5&#45;&gt;0 -->
<g id="edge3" class="edge">
<title>5&#45;&gt;0</title>
<path fill="none" stroke="grey" stroke-width="2" d="M325.71,-143.79C319.04,-124.41 305.98,-92.9 286,-72 273.23,-58.64 256.35,-47.71 240.41,-39.31"/>
<polygon fill="grey" stroke="grey" stroke-width="2" points="241.69,-36.04 231.18,-34.67 238.54,-42.29 241.69,-36.04"/>
</g>
<!-- 9 -->
<g id="node10" class="node">
<title>9</title>
<path fill="none" stroke="#d85656" stroke-width="2" stroke-dasharray="5,2" d="M415,-108C415,-108 345,-108 345,-108 339,-108 333,-102 333,-96 333,-96 333,-84 333,-84 333,-78 339,-72 345,-72 345,-72 415,-72 415,-72 421,-72 427,-78 427,-84 427,-84 427,-96 427,-96 427,-102 421,-108 415,-108"/>
<text text-anchor="middle" x="380" y="-87.5" font-family="sans" font-size="10.00">samtools_index</text>
</g>
<!-- 5&#45;&gt;9 -->
<g id="edge12" class="edge">
<title>5&#45;&gt;9</title>
<path fill="none" stroke="grey" stroke-width="2" d="M343.11,-143.7C348.87,-135.47 355.86,-125.48 362.21,-116.42"/>
<polygon fill="grey" stroke="grey" stroke-width="2" points="365.16,-118.3 368.03,-108.1 359.42,-114.29 365.16,-118.3"/>
</g>
<!-- 6 -->
<g id="node7" class="node">
<title>6</title>
<path fill="none" stroke="#d8bc56" stroke-width="2" stroke-dasharray="5,2" d="M361.5,-252C361.5,-252 300.5,-252 300.5,-252 294.5,-252 288.5,-246 288.5,-240 288.5,-240 288.5,-228 288.5,-228 288.5,-222 294.5,-216 300.5,-216 300.5,-216 361.5,-216 361.5,-216 367.5,-216 373.5,-222 373.5,-228 373.5,-228 373.5,-240 373.5,-240 373.5,-246 367.5,-252 361.5,-252"/>
<text text-anchor="middle" x="331" y="-237" font-family="sans" font-size="10.00">bwa_mapping</text>
<text text-anchor="middle" x="331" y="-226" font-family="sans" font-size="10.00">sample: C</text>
</g>
<!-- 6&#45;&gt;5 -->
<g id="edge9" class="edge">
<title>6&#45;&gt;5</title>
<path fill="none" stroke="grey" stroke-width="2" d="M331,-215.7C331,-207.98 331,-198.71 331,-190.11"/>
<polygon fill="grey" stroke="grey" stroke-width="2" points="334.5,-190.1 331,-180.1 327.5,-190.1 334.5,-190.1"/>
</g>
<!-- 7&#45;&gt;0 -->
<g id="edge4" class="edge">
<title>7&#45;&gt;0</title>
<path fill="none" stroke="grey" stroke-width="2" d="M107.4,-71.88C121.91,-62.81 139.92,-51.55 155.59,-41.76"/>
<polygon fill="grey" stroke="grey" stroke-width="2" points="157.87,-44.46 164.5,-36.19 154.16,-38.52 157.87,-44.46"/>
</g>
<!-- 8&#45;&gt;0 -->
<g id="edge5" class="edge">
<title>8&#45;&gt;0</title>
<path fill="none" stroke="grey" stroke-width="2" d="M220.61,-71.7C216.24,-63.64 210.94,-53.89 206.1,-44.98"/>
<polygon fill="grey" stroke="grey" stroke-width="2" points="209.13,-43.22 201.29,-36.1 202.98,-46.56 209.13,-43.22"/>
</g>
<!-- 9&#45;&gt;0 -->
<g id="edge6" class="edge">
<title>9&#45;&gt;0</title>
<path fill="none" stroke="grey" stroke-width="2" d="M334.01,-71.88C305.69,-61.33 269.42,-47.82 240.62,-37.1"/>
<polygon fill="grey" stroke="grey" stroke-width="2" points="241.76,-33.79 231.16,-33.58 239.31,-40.35 241.76,-33.79"/>
</g>
</g>
</svg>
