<?xml version="1.0" encoding="UTF-8" standalone="no"?>
<!DOCTYPE svg PUBLIC "-//W3C//DTD SVG 1.1//EN"
 "http://www.w3.org/Graphics/SVG/1.1/DTD/svg11.dtd">
<!-- Generated by graphviz version 2.40.1 (20161225.0304)
 -->
<!-- Title: snakemake_dag Pages: 1 -->
<svg width="1084pt" height="404pt"
 viewBox="0.00 0.00 1083.50 404.00" xmlns="http://www.w3.org/2000/svg" xmlns:xlink="http://www.w3.org/1999/xlink">
<g id="graph0" class="graph" transform="scale(1 1) rotate(0) translate(4 400)">
<title>snakemake_dag</title>
<polygon fill="#ffffff" stroke="transparent" points="-4,4 -4,-400 1079.5,-400 1079.5,4 -4,4"/>
<!-- 0 -->
<g id="node1" class="node">
<title>0</title>
<path fill="none" stroke="#d88556" stroke-width="2" d="M516.5,-36C516.5,-36 486.5,-36 486.5,-36 480.5,-36 474.5,-30 474.5,-24 474.5,-24 474.5,-12 474.5,-12 474.5,-6 480.5,0 486.5,0 486.5,0 516.5,0 516.5,0 522.5,0 528.5,-6 528.5,-12 528.5,-12 528.5,-24 528.5,-24 528.5,-30 522.5,-36 516.5,-36"/>
<text text-anchor="middle" x="501.5" y="-15.5" font-family="sans" font-size="10.00" fill="#000000">all</text>
</g>
<!-- 1 -->
<g id="node2" class="node">
<title>1</title>
<path fill="none" stroke="#56a9d8" stroke-width="2" d="M477,-108C477,-108 430,-108 430,-108 424,-108 418,-102 418,-96 418,-96 418,-84 418,-84 418,-78 424,-72 430,-72 430,-72 477,-72 477,-72 483,-72 489,-78 489,-84 489,-84 489,-96 489,-96 489,-102 483,-108 477,-108"/>
<text text-anchor="middle" x="453.5" y="-87.5" font-family="sans" font-size="10.00" fill="#000000">report_bwa</text>
</g>
<!-- 1&#45;&gt;0 -->
<g id="edge1" class="edge">
<title>1&#45;&gt;0</title>
<path fill="none" stroke="#c0c0c0" stroke-width="2" d="M465.6124,-71.8314C471.0281,-63.7079 477.5242,-53.9637 483.4921,-45.0118"/>
<polygon fill="#c0c0c0" stroke="#c0c0c0" stroke-width="2" points="486.5896,-46.6753 489.2245,-36.4133 480.7653,-42.7923 486.5896,-46.6753"/>
</g>
<!-- 2 -->
<g id="node3" class="node">
<title>2</title>
<path fill="none" stroke="#d85656" stroke-width="2" d="M315.5,-180C315.5,-180 235.5,-180 235.5,-180 229.5,-180 223.5,-174 223.5,-168 223.5,-168 223.5,-156 223.5,-156 223.5,-150 229.5,-144 235.5,-144 235.5,-144 315.5,-144 315.5,-144 321.5,-144 327.5,-150 327.5,-156 327.5,-156 327.5,-168 327.5,-168 327.5,-174 321.5,-180 315.5,-180"/>
<text text-anchor="middle" x="275.5" y="-159.5" font-family="sans" font-size="10.00" fill="#000000">bcftools_call_bwa</text>
</g>
<!-- 2&#45;&gt;1 -->
<g id="edge3" class="edge">
<title>2&#45;&gt;1</title>
<path fill="none" stroke="#c0c0c0" stroke-width="2" d="M320.4169,-143.8314C347.2926,-132.9603 381.3432,-119.187 408.2737,-108.2938"/>
<polygon fill="#c0c0c0" stroke="#c0c0c0" stroke-width="2" points="409.8889,-111.416 417.8468,-104.4215 407.264,-104.9268 409.8889,-111.416"/>
</g>
<!-- 3 -->
<g id="node4" class="node">
<title>3</title>
<path fill="none" stroke="#afd856" stroke-width="2" d="M99,-324C99,-324 12,-324 12,-324 6,-324 0,-318 0,-312 0,-312 0,-300 0,-300 0,-294 6,-288 12,-288 12,-288 99,-288 99,-288 105,-288 111,-294 111,-300 111,-300 111,-312 111,-312 111,-318 105,-324 99,-324"/>
<text text-anchor="middle" x="55.5" y="-303.5" font-family="sans" font-size="10.00" fill="#000000">samtools_sort_bwa</text>
</g>
<!-- 3&#45;&gt;2 -->
<g id="edge4" class="edge">
<title>3&#45;&gt;2</title>
<path fill="none" stroke="#c0c0c0" stroke-width="2" d="M41.9153,-287.8748C28.9696,-268.2162 13.7391,-236.8574 30.5,-216 53.0311,-187.962 148.4699,-173.6254 213.3618,-166.9813"/>
<polygon fill="#c0c0c0" stroke="#c0c0c0" stroke-width="2" points="213.8909,-170.4462 223.4984,-165.9801 213.2028,-163.4801 213.8909,-170.4462"/>
</g>
<!-- 9 -->
<g id="node10" class="node">
<title>9</title>
<path fill="none" stroke="#80d856" stroke-width="2" d="M147,-252C147,-252 52,-252 52,-252 46,-252 40,-246 40,-240 40,-240 40,-228 40,-228 40,-222 46,-216 52,-216 52,-216 147,-216 147,-216 153,-216 159,-222 159,-228 159,-228 159,-240 159,-240 159,-246 153,-252 147,-252"/>
<text text-anchor="middle" x="99.5" y="-231.5" font-family="sans" font-size="10.00" fill="#000000">samtools_index_bwa</text>
</g>
<!-- 3&#45;&gt;9 -->
<g id="edge13" class="edge">
<title>3&#45;&gt;9</title>
<path fill="none" stroke="#c0c0c0" stroke-width="2" d="M66.6031,-287.8314C71.5674,-279.7079 77.5222,-269.9637 82.9928,-261.0118"/>
<polygon fill="#c0c0c0" stroke="#c0c0c0" stroke-width="2" points="86.0194,-262.7712 88.2474,-252.4133 80.0464,-259.121 86.0194,-262.7712"/>
</g>
<!-- 4 -->
<g id="node5" class="node">
<title>4</title>
<path fill="none" stroke="#5682d8" stroke-width="2" d="M86,-396C86,-396 25,-396 25,-396 19,-396 13,-390 13,-384 13,-384 13,-372 13,-372 13,-366 19,-360 25,-360 25,-360 86,-360 86,-360 92,-360 98,-366 98,-372 98,-372 98,-384 98,-384 98,-390 92,-396 86,-396"/>
<text text-anchor="middle" x="55.5" y="-381" font-family="sans" font-size="10.00" fill="#000000">bwa_mapping</text>
<text text-anchor="middle" x="55.5" y="-370" font-family="sans" font-size="10.00" fill="#000000">sample: A</text>
</g>
<!-- 4&#45;&gt;3 -->
<g id="edge10" class="edge">
<title>4&#45;&gt;3</title>
<path fill="none" stroke="#c0c0c0" stroke-width="2" d="M55.5,-359.8314C55.5,-352.131 55.5,-342.9743 55.5,-334.4166"/>
<polygon fill="#c0c0c0" stroke="#c0c0c0" stroke-width="2" points="59.0001,-334.4132 55.5,-324.4133 52.0001,-334.4133 59.0001,-334.4132"/>
</g>
<!-- 5 -->
<g id="node6" class="node">
<title>5</title>
<path fill="none" stroke="#afd856" stroke-width="2" d="M301,-324C301,-324 214,-324 214,-324 208,-324 202,-318 202,-312 202,-312 202,-300 202,-300 202,-294 208,-288 214,-288 214,-288 301,-288 301,-288 307,-288 313,-294 313,-300 313,-300 313,-312 313,-312 313,-318 307,-324 301,-324"/>
<text text-anchor="middle" x="257.5" y="-303.5" font-family="sans" font-size="10.00" fill="#000000">samtools_sort_bwa</text>
</g>
<!-- 5&#45;&gt;2 -->
<g id="edge5" class="edge">
<title>5&#45;&gt;2</title>
<path fill="none" stroke="#c0c0c0" stroke-width="2" d="M233.6509,-287.928C223.2058,-278.5042 212.074,-266.02 206.5,-252 200.5888,-237.132 199.492,-230.3836 206.5,-216 212.2304,-204.2386 221.8987,-194.2849 232.2121,-186.2518"/>
<polygon fill="#c0c0c0" stroke="#c0c0c0" stroke-width="2" points="234.5013,-188.9159 240.5585,-180.2233 230.4026,-183.2412 234.5013,-188.9159"/>
</g>
<!-- 10 -->
<g id="node11" class="node">
<title>10</title>
<path fill="none" stroke="#80d856" stroke-width="2" d="M323,-252C323,-252 228,-252 228,-252 222,-252 216,-246 216,-240 216,-240 216,-228 216,-228 216,-222 222,-216 228,-216 228,-216 323,-216 323,-216 329,-216 335,-222 335,-228 335,-228 335,-240 335,-240 335,-246 329,-252 323,-252"/>
<text text-anchor="middle" x="275.5" y="-231.5" font-family="sans" font-size="10.00" fill="#000000">samtools_index_bwa</text>
</g>
<!-- 5&#45;&gt;10 -->
<g id="edge14" class="edge">
<title>5&#45;&gt;10</title>
<path fill="none" stroke="#c0c0c0" stroke-width="2" d="M262.0422,-287.8314C263.9884,-280.0463 266.3068,-270.7729 268.4663,-262.1347"/>
<polygon fill="#c0c0c0" stroke="#c0c0c0" stroke-width="2" points="271.8668,-262.9636 270.8967,-252.4133 265.0758,-261.2658 271.8668,-262.9636"/>
</g>
<!-- 6 -->
<g id="node7" class="node">
<title>6</title>
<path fill="none" stroke="#5682d8" stroke-width="2" d="M288,-396C288,-396 227,-396 227,-396 221,-396 215,-390 215,-384 215,-384 215,-372 215,-372 215,-366 221,-360 227,-360 227,-360 288,-360 288,-360 294,-360 300,-366 300,-372 300,-372 300,-384 300,-384 300,-390 294,-396 288,-396"/>
<text text-anchor="middle" x="257.5" y="-381" font-family="sans" font-size="10.00" fill="#000000">bwa_mapping</text>
<text text-anchor="middle" x="257.5" y="-370" font-family="sans" font-size="10.00" fill="#000000">sample: B</text>
</g>
<!-- 6&#45;&gt;5 -->
<g id="edge11" class="edge">
<title>6&#45;&gt;5</title>
<path fill="none" stroke="#c0c0c0" stroke-width="2" d="M257.5,-359.8314C257.5,-352.131 257.5,-342.9743 257.5,-334.4166"/>
<polygon fill="#c0c0c0" stroke="#c0c0c0" stroke-width="2" points="261.0001,-334.4132 257.5,-324.4133 254.0001,-334.4133 261.0001,-334.4132"/>
</g>
<!-- 7 -->
<g id="node8" class="node">
<title>7</title>
<path fill="none" stroke="#afd856" stroke-width="2" d="M453,-324C453,-324 366,-324 366,-324 360,-324 354,-318 354,-312 354,-312 354,-300 354,-300 354,-294 360,-288 366,-288 366,-288 453,-288 453,-288 459,-288 465,-294 465,-300 465,-300 465,-312 465,-312 465,-318 459,-324 453,-324"/>
<text text-anchor="middle" x="409.5" y="-303.5" font-family="sans" font-size="10.00" fill="#000000">samtools_sort_bwa</text>
</g>
<!-- 7&#45;&gt;2 -->
<g id="edge6" class="edge">
<title>7&#45;&gt;2</title>
<path fill="none" stroke="#c0c0c0" stroke-width="2" d="M398.1429,-287.6564C385.9138,-268.6504 365.2654,-238.6176 343.5,-216 333.2379,-205.3361 320.8464,-194.9099 309.4679,-186.1072"/>
<polygon fill="#c0c0c0" stroke="#c0c0c0" stroke-width="2" points="311.492,-183.2497 301.4065,-180.0043 307.2668,-188.8308 311.492,-183.2497"/>
</g>
<!-- 11 -->
<g id="node12" class="node">
<title>11</title>
<path fill="none" stroke="#80d856" stroke-width="2" d="M499,-252C499,-252 404,-252 404,-252 398,-252 392,-246 392,-240 392,-240 392,-228 392,-228 392,-222 398,-216 404,-216 404,-216 499,-216 499,-216 505,-216 511,-222 511,-228 511,-228 511,-240 511,-240 511,-246 505,-252 499,-252"/>
<text text-anchor="middle" x="451.5" y="-231.5" font-family="sans" font-size="10.00" fill="#000000">samtools_index_bwa</text>
</g>
<!-- 7&#45;&gt;11 -->
<g id="edge15" class="edge">
<title>7&#45;&gt;11</title>
<path fill="none" stroke="#c0c0c0" stroke-width="2" d="M420.0984,-287.8314C424.7877,-279.7925 430.4028,-270.1666 435.5798,-261.2918"/>
<polygon fill="#c0c0c0" stroke="#c0c0c0" stroke-width="2" points="438.7434,-262.8146 440.7589,-252.4133 432.6969,-259.2875 438.7434,-262.8146"/>
</g>
<!-- 8 -->
<g id="node9" class="node">
<title>8</title>
<path fill="none" stroke="#5682d8" stroke-width="2" d="M440,-396C440,-396 379,-396 379,-396 373,-396 367,-390 367,-384 367,-384 367,-372 367,-372 367,-366 373,-360 379,-360 379,-360 440,-360 440,-360 446,-360 452,-366 452,-372 452,-372 452,-384 452,-384 452,-390 446,-396 440,-396"/>
<text text-anchor="middle" x="409.5" y="-381" font-family="sans" font-size="10.00" fill="#000000">bwa_mapping</text>
<text text-anchor="middle" x="409.5" y="-370" font-family="sans" font-size="10.00" fill="#000000">sample: C</text>
</g>
<!-- 8&#45;&gt;7 -->
<g id="edge12" class="edge">
<title>8&#45;&gt;7</title>
<path fill="none" stroke="#c0c0c0" stroke-width="2" d="M409.5,-359.8314C409.5,-352.131 409.5,-342.9743 409.5,-334.4166"/>
<polygon fill="#c0c0c0" stroke="#c0c0c0" stroke-width="2" points="413.0001,-334.4132 409.5,-324.4133 406.0001,-334.4133 413.0001,-334.4132"/>
</g>
<!-- 9&#45;&gt;2 -->
<g id="edge7" class="edge">
<title>9&#45;&gt;2</title>
<path fill="none" stroke="#c0c0c0" stroke-width="2" d="M143.9122,-215.8314C167.6604,-206.1162 197.0746,-194.0831 222.0664,-183.8592"/>
<polygon fill="#c0c0c0" stroke="#c0c0c0" stroke-width="2" points="223.4769,-187.0638 231.4071,-180.038 220.8264,-180.585 223.4769,-187.0638"/>
</g>
<!-- 10&#45;&gt;2 -->
<g id="edge8" class="edge">
<title>10&#45;&gt;2</title>
<path fill="none" stroke="#c0c0c0" stroke-width="2" d="M275.5,-215.8314C275.5,-208.131 275.5,-198.9743 275.5,-190.4166"/>
<polygon fill="#c0c0c0" stroke="#c0c0c0" stroke-width="2" points="279.0001,-190.4132 275.5,-180.4133 272.0001,-190.4133 279.0001,-190.4132"/>
</g>
<!-- 11&#45;&gt;2 -->
<g id="edge9" class="edge">
<title>11&#45;&gt;2</title>
<path fill="none" stroke="#c0c0c0" stroke-width="2" d="M407.0878,-215.8314C383.3396,-206.1162 353.9254,-194.0831 328.9336,-183.8592"/>
<polygon fill="#c0c0c0" stroke="#c0c0c0" stroke-width="2" points="330.1736,-180.585 319.5929,-180.038 327.5231,-187.0638 330.1736,-180.585"/>
</g>
<!-- 12 -->
<g id="node13" class="node">
<title>12</title>
<path fill="none" stroke="#59d856" stroke-width="2" d="M668.5,-108C668.5,-108 608.5,-108 608.5,-108 602.5,-108 596.5,-102 596.5,-96 596.5,-96 596.5,-84 596.5,-84 596.5,-78 602.5,-72 608.5,-72 608.5,-72 668.5,-72 668.5,-72 674.5,-72 680.5,-78 680.5,-84 680.5,-84 680.5,-96 680.5,-96 680.5,-102 674.5,-108 668.5,-108"/>
<text text-anchor="middle" x="638.5" y="-87.5" font-family="sans" font-size="10.00" fill="#000000">report_bowtie</text>
</g>
<!-- 12&#45;&gt;0 -->
<g id="edge2" class="edge">
<title>12&#45;&gt;0</title>
<path fill="none" stroke="#c0c0c0" stroke-width="2" d="M603.9291,-71.8314C583.7195,-61.2103 558.2386,-47.8188 537.7473,-37.0497"/>
<polygon fill="#c0c0c0" stroke="#c0c0c0" stroke-width="2" points="539.2006,-33.8596 528.7203,-32.3056 535.9441,-40.056 539.2006,-33.8596"/>
</g>
<!-- 13 -->
<g id="node14" class="node">
<title>13</title>
<path fill="none" stroke="#d8ac56" stroke-width="2" d="M773.5,-180C773.5,-180 681.5,-180 681.5,-180 675.5,-180 669.5,-174 669.5,-168 669.5,-168 669.5,-156 669.5,-156 669.5,-150 675.5,-144 681.5,-144 681.5,-144 773.5,-144 773.5,-144 779.5,-144 785.5,-150 785.5,-156 785.5,-156 785.5,-168 785.5,-168 785.5,-174 779.5,-180 773.5,-180"/>
<text text-anchor="middle" x="727.5" y="-159.5" font-family="sans" font-size="10.00" fill="#000000">bcftools_call_bowtie</text>
</g>
<!-- 13&#45;&gt;12 -->
<g id="edge16" class="edge">
<title>13&#45;&gt;12</title>
<path fill="none" stroke="#c0c0c0" stroke-width="2" d="M705.0415,-143.8314C694.0795,-134.9632 680.7301,-124.1637 668.8735,-114.5718"/>
<polygon fill="#c0c0c0" stroke="#c0c0c0" stroke-width="2" points="670.9271,-111.7313 660.9513,-108.1628 666.5245,-117.1734 670.9271,-111.7313"/>
</g>
<!-- 14 -->
<g id="node15" class="node">
<title>14</title>
<path fill="none" stroke="#56d8d8" stroke-width="2" d="M606.5,-324C606.5,-324 506.5,-324 506.5,-324 500.5,-324 494.5,-318 494.5,-312 494.5,-312 494.5,-300 494.5,-300 494.5,-294 500.5,-288 506.5,-288 506.5,-288 606.5,-288 606.5,-288 612.5,-288 618.5,-294 618.5,-300 618.5,-300 618.5,-312 618.5,-312 618.5,-318 612.5,-324 606.5,-324"/>
<text text-anchor="middle" x="556.5" y="-303.5" font-family="sans" font-size="10.00" fill="#000000">samtools_sort_bowtie</text>
</g>
<!-- 14&#45;&gt;13 -->
<g id="edge17" class="edge">
<title>14&#45;&gt;13</title>
<path fill="none" stroke="#c0c0c0" stroke-width="2" d="M551.226,-287.7982C546.6931,-268.0725 543.0611,-236.6553 558.5,-216 571.0907,-199.1552 618.3342,-184.9164 659.6799,-175.2962"/>
<polygon fill="#c0c0c0" stroke="#c0c0c0" stroke-width="2" points="660.5104,-178.6968 669.4892,-173.0726 658.9628,-171.87 660.5104,-178.6968"/>
</g>
<!-- 20 -->
<g id="node21" class="node">
<title>20</title>
<path fill="none" stroke="#56d8a9" stroke-width="2" d="M687.5,-252C687.5,-252 579.5,-252 579.5,-252 573.5,-252 567.5,-246 567.5,-240 567.5,-240 567.5,-228 567.5,-228 567.5,-222 573.5,-216 579.5,-216 579.5,-216 687.5,-216 687.5,-216 693.5,-216 699.5,-222 699.5,-228 699.5,-228 699.5,-240 699.5,-240 699.5,-246 693.5,-252 687.5,-252"/>
<text text-anchor="middle" x="633.5" y="-231.5" font-family="sans" font-size="10.00" fill="#000000">samtools_index_bowtie</text>
</g>
<!-- 14&#45;&gt;20 -->
<g id="edge26" class="edge">
<title>14&#45;&gt;20</title>
<path fill="none" stroke="#c0c0c0" stroke-width="2" d="M575.9304,-287.8314C585.232,-279.1337 596.5204,-268.5783 606.6286,-259.1265"/>
<polygon fill="#c0c0c0" stroke="#c0c0c0" stroke-width="2" points="609.1621,-261.5493 614.0759,-252.1628 604.3811,-256.4363 609.1621,-261.5493"/>
</g>
<!-- 15 -->
<g id="node16" class="node">
<title>15</title>
<path fill="none" stroke="#d6d856" stroke-width="2" d="M593.5,-396C593.5,-396 519.5,-396 519.5,-396 513.5,-396 507.5,-390 507.5,-384 507.5,-384 507.5,-372 507.5,-372 507.5,-366 513.5,-360 519.5,-360 519.5,-360 593.5,-360 593.5,-360 599.5,-360 605.5,-366 605.5,-372 605.5,-372 605.5,-384 605.5,-384 605.5,-390 599.5,-396 593.5,-396"/>
<text text-anchor="middle" x="556.5" y="-381" font-family="sans" font-size="10.00" fill="#000000">bowtie_mapping</text>
<text text-anchor="middle" x="556.5" y="-370" font-family="sans" font-size="10.00" fill="#000000">sample: A</text>
</g>
<!-- 15&#45;&gt;14 -->
<g id="edge23" class="edge">
<title>15&#45;&gt;14</title>
<path fill="none" stroke="#c0c0c0" stroke-width="2" d="M556.5,-359.8314C556.5,-352.131 556.5,-342.9743 556.5,-334.4166"/>
<polygon fill="#c0c0c0" stroke="#c0c0c0" stroke-width="2" points="560.0001,-334.4132 556.5,-324.4133 553.0001,-334.4133 560.0001,-334.4132"/>
</g>
<!-- 16 -->
<g id="node17" class="node">
<title>16</title>
<path fill="none" stroke="#56d8d8" stroke-width="2" d="M835.5,-324C835.5,-324 735.5,-324 735.5,-324 729.5,-324 723.5,-318 723.5,-312 723.5,-312 723.5,-300 723.5,-300 723.5,-294 729.5,-288 735.5,-288 735.5,-288 835.5,-288 835.5,-288 841.5,-288 847.5,-294 847.5,-300 847.5,-300 847.5,-312 847.5,-312 847.5,-318 841.5,-324 835.5,-324"/>
<text text-anchor="middle" x="785.5" y="-303.5" font-family="sans" font-size="10.00" fill="#000000">samtools_sort_bowtie</text>
</g>
<!-- 16&#45;&gt;13 -->
<g id="edge18" class="edge">
<title>16&#45;&gt;13</title>
<path fill="none" stroke="#c0c0c0" stroke-width="2" d="M769.3244,-287.707C761.3363,-277.7696 752.2113,-264.9009 746.5,-252 737.7996,-232.3472 732.9959,-208.4834 730.3964,-190.2682"/>
<polygon fill="#c0c0c0" stroke="#c0c0c0" stroke-width="2" points="733.8575,-189.741 729.1077,-180.2705 726.9149,-190.6359 733.8575,-189.741"/>
</g>
<!-- 21 -->
<g id="node22" class="node">
<title>21</title>
<path fill="none" stroke="#56d8a9" stroke-width="2" d="M875.5,-252C875.5,-252 767.5,-252 767.5,-252 761.5,-252 755.5,-246 755.5,-240 755.5,-240 755.5,-228 755.5,-228 755.5,-222 761.5,-216 767.5,-216 767.5,-216 875.5,-216 875.5,-216 881.5,-216 887.5,-222 887.5,-228 887.5,-228 887.5,-240 887.5,-240 887.5,-246 881.5,-252 875.5,-252"/>
<text text-anchor="middle" x="821.5" y="-231.5" font-family="sans" font-size="10.00" fill="#000000">samtools_index_bowtie</text>
</g>
<!-- 16&#45;&gt;21 -->
<g id="edge27" class="edge">
<title>16&#45;&gt;21</title>
<path fill="none" stroke="#c0c0c0" stroke-width="2" d="M794.5843,-287.8314C798.5615,-279.8771 803.3155,-270.369 807.7139,-261.5723"/>
<polygon fill="#c0c0c0" stroke="#c0c0c0" stroke-width="2" points="810.9517,-262.9228 812.2934,-252.4133 804.6907,-259.7923 810.9517,-262.9228"/>
</g>
<!-- 17 -->
<g id="node18" class="node">
<title>17</title>
<path fill="none" stroke="#d6d856" stroke-width="2" d="M822.5,-396C822.5,-396 748.5,-396 748.5,-396 742.5,-396 736.5,-390 736.5,-384 736.5,-384 736.5,-372 736.5,-372 736.5,-366 742.5,-360 748.5,-360 748.5,-360 822.5,-360 822.5,-360 828.5,-360 834.5,-366 834.5,-372 834.5,-372 834.5,-384 834.5,-384 834.5,-390 828.5,-396 822.5,-396"/>
<text text-anchor="middle" x="785.5" y="-381" font-family="sans" font-size="10.00" fill="#000000">bowtie_mapping</text>
<text text-anchor="middle" x="785.5" y="-370" font-family="sans" font-size="10.00" fill="#000000">sample: B</text>
</g>
<!-- 17&#45;&gt;16 -->
<g id="edge24" class="edge">
<title>17&#45;&gt;16</title>
<path fill="none" stroke="#c0c0c0" stroke-width="2" d="M785.5,-359.8314C785.5,-352.131 785.5,-342.9743 785.5,-334.4166"/>
<polygon fill="#c0c0c0" stroke="#c0c0c0" stroke-width="2" points="789.0001,-334.4132 785.5,-324.4133 782.0001,-334.4133 789.0001,-334.4132"/>
</g>
<!-- 18 -->
<g id="node19" class="node">
<title>18</title>
<path fill="none" stroke="#56d8d8" stroke-width="2" d="M1000.5,-324C1000.5,-324 900.5,-324 900.5,-324 894.5,-324 888.5,-318 888.5,-312 888.5,-312 888.5,-300 888.5,-300 888.5,-294 894.5,-288 900.5,-288 900.5,-288 1000.5,-288 1000.5,-288 1006.5,-288 1012.5,-294 1012.5,-300 1012.5,-300 1012.5,-312 1012.5,-312 1012.5,-318 1006.5,-324 1000.5,-324"/>
<text text-anchor="middle" x="950.5" y="-303.5" font-family="sans" font-size="10.00" fill="#000000">samtools_sort_bowtie</text>
</g>
<!-- 18&#45;&gt;13 -->
<g id="edge19" class="edge">
<title>18&#45;&gt;13</title>
<path fill="none" stroke="#c0c0c0" stroke-width="2" d="M944.1078,-287.7803C936.0667,-267.436 920.3552,-234.8926 896.5,-216 867.6149,-193.1239 828.8229,-179.8359 795.6899,-172.1704"/>
<polygon fill="#c0c0c0" stroke="#c0c0c0" stroke-width="2" points="796.1228,-168.6825 785.6062,-169.9676 794.6288,-175.5212 796.1228,-168.6825"/>
</g>
<!-- 22 -->
<g id="node23" class="node">
<title>22</title>
<path fill="none" stroke="#56d8a9" stroke-width="2" d="M1063.5,-252C1063.5,-252 955.5,-252 955.5,-252 949.5,-252 943.5,-246 943.5,-240 943.5,-240 943.5,-228 943.5,-228 943.5,-222 949.5,-216 955.5,-216 955.5,-216 1063.5,-216 1063.5,-216 1069.5,-216 1075.5,-222 1075.5,-228 1075.5,-228 1075.5,-240 1075.5,-240 1075.5,-246 1069.5,-252 1063.5,-252"/>
<text text-anchor="middle" x="1009.5" y="-231.5" font-family="sans" font-size="10.00" fill="#000000">samtools_index_bowtie</text>
</g>
<!-- 18&#45;&gt;22 -->
<g id="edge28" class="edge">
<title>18&#45;&gt;22</title>
<path fill="none" stroke="#c0c0c0" stroke-width="2" d="M965.3882,-287.8314C972.253,-279.454 980.5301,-269.3531 988.0511,-260.1749"/>
<polygon fill="#c0c0c0" stroke="#c0c0c0" stroke-width="2" points="990.7803,-262.3665 994.4114,-252.4133 985.3659,-257.9297 990.7803,-262.3665"/>
</g>
<!-- 19 -->
<g id="node20" class="node">
<title>19</title>
<path fill="none" stroke="#d6d856" stroke-width="2" d="M987.5,-396C987.5,-396 913.5,-396 913.5,-396 907.5,-396 901.5,-390 901.5,-384 901.5,-384 901.5,-372 901.5,-372 901.5,-366 907.5,-360 913.5,-360 913.5,-360 987.5,-360 987.5,-360 993.5,-360 999.5,-366 999.5,-372 999.5,-372 999.5,-384 999.5,-384 999.5,-390 993.5,-396 987.5,-396"/>
<text text-anchor="middle" x="950.5" y="-381" font-family="sans" font-size="10.00" fill="#000000">bowtie_mapping</text>
<text text-anchor="middle" x="950.5" y="-370" font-family="sans" font-size="10.00" fill="#000000">sample: C</text>
</g>
<!-- 19&#45;&gt;18 -->
<g id="edge25" class="edge">
<title>19&#45;&gt;18</title>
<path fill="none" stroke="#c0c0c0" stroke-width="2" d="M950.5,-359.8314C950.5,-352.131 950.5,-342.9743 950.5,-334.4166"/>
<polygon fill="#c0c0c0" stroke="#c0c0c0" stroke-width="2" points="954.0001,-334.4132 950.5,-324.4133 947.0001,-334.4133 954.0001,-334.4132"/>
</g>
<!-- 20&#45;&gt;13 -->
<g id="edge20" class="edge">
<title>20&#45;&gt;13</title>
<path fill="none" stroke="#c0c0c0" stroke-width="2" d="M657.2202,-215.8314C668.9094,-206.8779 683.1688,-195.9558 695.7809,-186.2955"/>
<polygon fill="#c0c0c0" stroke="#c0c0c0" stroke-width="2" points="697.9769,-189.0222 703.7874,-180.1628 693.7203,-183.4651 697.9769,-189.0222"/>
</g>
<!-- 21&#45;&gt;13 -->
<g id="edge21" class="edge">
<title>21&#45;&gt;13</title>
<path fill="none" stroke="#c0c0c0" stroke-width="2" d="M797.7798,-215.8314C786.0906,-206.8779 771.8312,-195.9558 759.2191,-186.2955"/>
<polygon fill="#c0c0c0" stroke="#c0c0c0" stroke-width="2" points="761.2797,-183.4651 751.2126,-180.1628 757.0231,-189.0222 761.2797,-183.4651"/>
</g>
<!-- 22&#45;&gt;13 -->
<g id="edge22" class="edge">
<title>22&#45;&gt;13</title>
<path fill="none" stroke="#c0c0c0" stroke-width="2" d="M943.3835,-217.1192C898.8873,-205.7584 840.3746,-190.819 795.4916,-179.3596"/>
<polygon fill="#c0c0c0" stroke="#c0c0c0" stroke-width="2" points="796.109,-175.905 785.554,-176.8223 794.3773,-182.6874 796.109,-175.905"/>
</g>
</g>
</svg>
